<?xml version="1.0"?>
<svg xmlns="http://www.w3.org/2000/svg" height="32" fill="#ffffff" stroke="#ffffff" id="skull" viewBox="0 0 32 32" width="32"><path d=" M16 0 C6 0 2 4 2 14 L2 22 L6 24 L6 30 L26 30 L26 24 L30 22 L30 14 C30 4 26 0 16 0 M9 12 A4.5 4.5 0 0 1 9 21 A4.5 4.5 0 0 1 9 12 M23 12 A4.5 4.5 0 0 1 23 21 A4.5 4.5 0 0 1 23 12 "/>
	<metadata>
		<rdf:RDF xmlns:rdf="http://www.w3.org/1999/02/22-rdf-syntax-ns#" xmlns:rdfs="http://www.w3.org/2000/01/rdf-schema#" xmlns:dc="http://purl.org/dc/elements/1.1/">
			<rdf:Description about="https://iconscout.com/legal#licenses" dc:title="293701,skull" dc:description="293701,skull" dc:publisher="Iconscout" dc:date="2017-02-24" dc:format="image/svg+xml" dc:language="en">
				<dc:creator>
					<rdf:Bag>
						<rdf:li>Geom Icons</rdf:li>
					</rdf:Bag>
				</dc:creator>
			</rdf:Description>
		</rdf:RDF>
    </metadata></svg>
